<mxfile host="app.diagrams.net" modified="2021-03-12T20:38:08.301Z" agent="5.0 (Windows NT 10.0; Win64; x64) AppleWebKit/537.36 (KHTML, like Gecko) Chrome/89.0.4389.82 Safari/537.36" etag="O5an7jquqWe8B6Y0XK5a" version="14.4.8" type="github">
  <diagram id="oNhxpNQNFjjKIULzhIJx" name="Page-1">
    <mxGraphModel dx="782" dy="437" grid="1" gridSize="10" guides="1" tooltips="1" connect="1" arrows="1" fold="1" page="1" pageScale="1" pageWidth="827" pageHeight="1169" math="0" shadow="0">
      <root>
        <mxCell id="0" />
        <mxCell id="1" parent="0" />
        <mxCell id="HsXjUcxBc0kHgjDJDb9y-1" value="Controller" style="html=1;" parent="1" vertex="1">
          <mxGeometry x="80" y="260" width="110" height="50" as="geometry" />
        </mxCell>
        <mxCell id="HsXjUcxBc0kHgjDJDb9y-2" value="t: Telepes" style="html=1;" parent="1" vertex="1">
          <mxGeometry x="370" y="140" width="110" height="50" as="geometry" />
        </mxCell>
        <mxCell id="HsXjUcxBc0kHgjDJDb9y-3" value="a: Aszteroida" style="html=1;" parent="1" vertex="1">
          <mxGeometry x="560" y="270" width="110" height="50" as="geometry" />
        </mxCell>
        <mxCell id="HsXjUcxBc0kHgjDJDb9y-4" value="v: Vizjeg" style="html=1;" parent="1" vertex="1">
          <mxGeometry x="370" y="380" width="110" height="50" as="geometry" />
        </mxCell>
        <mxCell id="HsXjUcxBc0kHgjDJDb9y-5" value="" style="endArrow=none;html=1;entryX=0;entryY=0.5;entryDx=0;entryDy=0;exitX=1;exitY=0.5;exitDx=0;exitDy=0;" parent="1" source="HsXjUcxBc0kHgjDJDb9y-1" target="HsXjUcxBc0kHgjDJDb9y-2" edge="1">
          <mxGeometry width="50" height="50" relative="1" as="geometry">
            <mxPoint x="240" y="230" as="sourcePoint" />
            <mxPoint x="290" y="180" as="targetPoint" />
          </mxGeometry>
        </mxCell>
        <mxCell id="HsXjUcxBc0kHgjDJDb9y-6" value="" style="endArrow=none;html=1;exitX=1;exitY=0.5;exitDx=0;exitDy=0;entryX=0;entryY=0.5;entryDx=0;entryDy=0;" parent="1" source="HsXjUcxBc0kHgjDJDb9y-1" target="HsXjUcxBc0kHgjDJDb9y-3" edge="1">
          <mxGeometry width="50" height="50" relative="1" as="geometry">
            <mxPoint x="260" y="320" as="sourcePoint" />
            <mxPoint x="310" y="270" as="targetPoint" />
          </mxGeometry>
        </mxCell>
        <mxCell id="HsXjUcxBc0kHgjDJDb9y-7" value="" style="endArrow=none;html=1;exitX=0;exitY=0.5;exitDx=0;exitDy=0;" parent="1" source="HsXjUcxBc0kHgjDJDb9y-4" edge="1">
          <mxGeometry width="50" height="50" relative="1" as="geometry">
            <mxPoint x="140" y="340" as="sourcePoint" />
            <mxPoint x="190" y="290" as="targetPoint" />
          </mxGeometry>
        </mxCell>
        <mxCell id="HsXjUcxBc0kHgjDJDb9y-8" value="1. &amp;lt;&amp;lt;create&amp;gt;&amp;gt;" style="html=1;verticalAlign=bottom;endArrow=block;" parent="1" edge="1">
          <mxGeometry width="80" relative="1" as="geometry">
            <mxPoint x="370" y="280" as="sourcePoint" />
            <mxPoint x="450" y="280" as="targetPoint" />
          </mxGeometry>
        </mxCell>
        <mxCell id="HsXjUcxBc0kHgjDJDb9y-9" value="2. &amp;lt;&amp;lt;create&amp;gt;&amp;gt; Telepes(a)" style="html=1;verticalAlign=bottom;endArrow=block;" parent="1" edge="1">
          <mxGeometry x="-0.4615" y="11" width="80" relative="1" as="geometry">
            <mxPoint x="240" y="230" as="sourcePoint" />
            <mxPoint x="300" y="190" as="targetPoint" />
            <mxPoint as="offset" />
          </mxGeometry>
        </mxCell>
        <mxCell id="HsXjUcxBc0kHgjDJDb9y-10" value="" style="endArrow=none;html=1;entryX=1;entryY=0.5;entryDx=0;entryDy=0;" parent="1" source="HsXjUcxBc0kHgjDJDb9y-3" target="HsXjUcxBc0kHgjDJDb9y-2" edge="1">
          <mxGeometry width="50" height="50" relative="1" as="geometry">
            <mxPoint x="570" y="250" as="sourcePoint" />
            <mxPoint x="620" y="200" as="targetPoint" />
          </mxGeometry>
        </mxCell>
        <mxCell id="HsXjUcxBc0kHgjDJDb9y-11" value="3. HajoErkezik(t)" style="html=1;verticalAlign=bottom;endArrow=block;" parent="1" edge="1">
          <mxGeometry x="0.8537" y="22" width="80" relative="1" as="geometry">
            <mxPoint x="530" y="200" as="sourcePoint" />
            <mxPoint x="580" y="240" as="targetPoint" />
            <mxPoint as="offset" />
          </mxGeometry>
        </mxCell>
        <mxCell id="HsXjUcxBc0kHgjDJDb9y-12" value="4. MezoBeallit(a)" style="html=1;verticalAlign=bottom;endArrow=block;" parent="1" edge="1">
          <mxGeometry x="0.04" y="32" width="80" relative="1" as="geometry">
            <mxPoint x="540" y="250" as="sourcePoint" />
            <mxPoint x="500" y="220" as="targetPoint" />
            <mxPoint as="offset" />
          </mxGeometry>
        </mxCell>
        <mxCell id="HsXjUcxBc0kHgjDJDb9y-13" value="5. &amp;lt;&amp;lt;create&amp;gt;&amp;gt; Vizjeg(a)" style="html=1;verticalAlign=bottom;endArrow=block;" parent="1" edge="1">
          <mxGeometry x="0.4615" y="11" width="80" relative="1" as="geometry">
            <mxPoint x="270" y="330" as="sourcePoint" />
            <mxPoint x="330" y="370" as="targetPoint" />
            <mxPoint as="offset" />
          </mxGeometry>
        </mxCell>
      </root>
    </mxGraphModel>
  </diagram>
</mxfile>
